<mxfile host="app.diagrams.net" modified="2024-05-21T07:30:30.396Z" agent="Mozilla/5.0 (Windows NT 10.0; Win64; x64) AppleWebKit/537.36 (KHTML, like Gecko) Chrome/121.0.0.0 Safari/537.36 OPR/107.0.0.0" etag="UWYCXoY2BCRltDP8b0DY" version="23.1.3" type="device">
  <diagram name="Pagina-1" id="c7Gazs5krZ3d438h5Pva">
    <mxGraphModel dx="2063" dy="533" grid="1" gridSize="10" guides="1" tooltips="1" connect="1" arrows="1" fold="1" page="1" pageScale="1" pageWidth="827" pageHeight="1169" math="0" shadow="0">
      <root>
        <mxCell id="0" />
        <mxCell id="1" parent="0" />
        <mxCell id="TlQTSCo525QF7UO3vCMd-5" style="edgeStyle=orthogonalEdgeStyle;rounded=0;orthogonalLoop=1;jettySize=auto;html=1;exitX=0.5;exitY=1;exitDx=0;exitDy=0;" edge="1" parent="1" source="TlQTSCo525QF7UO3vCMd-1" target="TlQTSCo525QF7UO3vCMd-4">
          <mxGeometry relative="1" as="geometry" />
        </mxCell>
        <mxCell id="TlQTSCo525QF7UO3vCMd-1" value="start" style="ellipse;whiteSpace=wrap;html=1;" vertex="1" parent="1">
          <mxGeometry x="330" y="50" width="120" height="80" as="geometry" />
        </mxCell>
        <mxCell id="TlQTSCo525QF7UO3vCMd-7" style="edgeStyle=orthogonalEdgeStyle;rounded=0;orthogonalLoop=1;jettySize=auto;html=1;exitX=0.5;exitY=1;exitDx=0;exitDy=0;entryX=0.5;entryY=0;entryDx=0;entryDy=0;" edge="1" parent="1" source="TlQTSCo525QF7UO3vCMd-4" target="TlQTSCo525QF7UO3vCMd-6">
          <mxGeometry relative="1" as="geometry" />
        </mxCell>
        <mxCell id="TlQTSCo525QF7UO3vCMd-4" value="]Welkom bij Papi Gelato je mag alle smaken kiezen zolang het maar vanille ijs is" style="rounded=1;whiteSpace=wrap;html=1;" vertex="1" parent="1">
          <mxGeometry x="275" y="160" width="230" height="160" as="geometry" />
        </mxCell>
        <mxCell id="TlQTSCo525QF7UO3vCMd-9" style="edgeStyle=orthogonalEdgeStyle;rounded=0;orthogonalLoop=1;jettySize=auto;html=1;exitX=0.5;exitY=1;exitDx=0;exitDy=0;" edge="1" parent="1" source="TlQTSCo525QF7UO3vCMd-6" target="TlQTSCo525QF7UO3vCMd-8">
          <mxGeometry relative="1" as="geometry" />
        </mxCell>
        <mxCell id="TlQTSCo525QF7UO3vCMd-6" value="hoeveel bolletjes wilt u" style="shape=parallelogram;perimeter=parallelogramPerimeter;whiteSpace=wrap;html=1;fixedSize=1;" vertex="1" parent="1">
          <mxGeometry x="310" y="370" width="160" height="90" as="geometry" />
        </mxCell>
        <mxCell id="TlQTSCo525QF7UO3vCMd-11" style="edgeStyle=orthogonalEdgeStyle;rounded=0;orthogonalLoop=1;jettySize=auto;html=1;exitX=1;exitY=1;exitDx=0;exitDy=0;entryX=0;entryY=0;entryDx=0;entryDy=0;" edge="1" parent="1" source="TlQTSCo525QF7UO3vCMd-8" target="TlQTSCo525QF7UO3vCMd-10">
          <mxGeometry relative="1" as="geometry" />
        </mxCell>
        <mxCell id="TlQTSCo525QF7UO3vCMd-16" style="edgeStyle=orthogonalEdgeStyle;rounded=0;orthogonalLoop=1;jettySize=auto;html=1;exitX=0;exitY=1;exitDx=0;exitDy=0;entryX=0.5;entryY=0;entryDx=0;entryDy=0;" edge="1" parent="1" source="TlQTSCo525QF7UO3vCMd-8" target="TlQTSCo525QF7UO3vCMd-15">
          <mxGeometry relative="1" as="geometry" />
        </mxCell>
        <mxCell id="TlQTSCo525QF7UO3vCMd-20" style="edgeStyle=orthogonalEdgeStyle;rounded=0;orthogonalLoop=1;jettySize=auto;html=1;exitX=0;exitY=0;exitDx=0;exitDy=0;entryX=1;entryY=0.5;entryDx=0;entryDy=0;" edge="1" parent="1" source="TlQTSCo525QF7UO3vCMd-8" target="TlQTSCo525QF7UO3vCMd-19">
          <mxGeometry relative="1" as="geometry" />
        </mxCell>
        <mxCell id="TlQTSCo525QF7UO3vCMd-28" style="edgeStyle=orthogonalEdgeStyle;rounded=0;orthogonalLoop=1;jettySize=auto;html=1;exitX=0.5;exitY=1;exitDx=0;exitDy=0;entryX=0.5;entryY=0;entryDx=0;entryDy=0;" edge="1" parent="1" source="TlQTSCo525QF7UO3vCMd-8" target="TlQTSCo525QF7UO3vCMd-25">
          <mxGeometry relative="1" as="geometry" />
        </mxCell>
        <mxCell id="TlQTSCo525QF7UO3vCMd-8" value="&quot;number&quot;" style="rhombus;whiteSpace=wrap;html=1;" vertex="1" parent="1">
          <mxGeometry x="340" y="535" width="100" height="100" as="geometry" />
        </mxCell>
        <mxCell id="TlQTSCo525QF7UO3vCMd-13" style="edgeStyle=orthogonalEdgeStyle;rounded=0;orthogonalLoop=1;jettySize=auto;html=1;exitX=1;exitY=1;exitDx=0;exitDy=0;entryX=0;entryY=0.25;entryDx=0;entryDy=0;" edge="1" parent="1" source="TlQTSCo525QF7UO3vCMd-10" target="TlQTSCo525QF7UO3vCMd-12">
          <mxGeometry relative="1" as="geometry" />
        </mxCell>
        <mxCell id="TlQTSCo525QF7UO3vCMd-10" value="if number&amp;gt;8" style="rounded=0;whiteSpace=wrap;html=1;" vertex="1" parent="1">
          <mxGeometry x="520" y="635" width="120" height="60" as="geometry" />
        </mxCell>
        <mxCell id="TlQTSCo525QF7UO3vCMd-14" style="edgeStyle=orthogonalEdgeStyle;rounded=0;orthogonalLoop=1;jettySize=auto;html=1;exitX=0.5;exitY=0;exitDx=0;exitDy=0;entryX=1;entryY=0.5;entryDx=0;entryDy=0;" edge="1" parent="1" source="TlQTSCo525QF7UO3vCMd-12" target="TlQTSCo525QF7UO3vCMd-6">
          <mxGeometry relative="1" as="geometry">
            <Array as="points">
              <mxPoint x="685" y="420" />
              <mxPoint x="460" y="420" />
            </Array>
          </mxGeometry>
        </mxCell>
        <mxCell id="TlQTSCo525QF7UO3vCMd-12" value="zulke grote bakken hebben we niet" style="shape=parallelogram;perimeter=parallelogramPerimeter;whiteSpace=wrap;html=1;fixedSize=1;" vertex="1" parent="1">
          <mxGeometry x="650" y="770" width="130" height="80" as="geometry" />
        </mxCell>
        <mxCell id="TlQTSCo525QF7UO3vCMd-18" style="edgeStyle=orthogonalEdgeStyle;rounded=0;orthogonalLoop=1;jettySize=auto;html=1;exitX=0.5;exitY=1;exitDx=0;exitDy=0;" edge="1" parent="1" source="TlQTSCo525QF7UO3vCMd-15" target="TlQTSCo525QF7UO3vCMd-17">
          <mxGeometry relative="1" as="geometry" />
        </mxCell>
        <mxCell id="TlQTSCo525QF7UO3vCMd-15" value="if number tussen 4-8" style="rounded=0;whiteSpace=wrap;html=1;" vertex="1" parent="1">
          <mxGeometry x="5" y="575" width="120" height="60" as="geometry" />
        </mxCell>
        <mxCell id="TlQTSCo525QF7UO3vCMd-17" value="dan krijgt u van mij een bakje met &#39;number&#39;&amp;nbsp; bolletjes" style="shape=parallelogram;perimeter=parallelogramPerimeter;whiteSpace=wrap;html=1;fixedSize=1;" vertex="1" parent="1">
          <mxGeometry x="-20" y="700" width="170" height="90" as="geometry" />
        </mxCell>
        <mxCell id="TlQTSCo525QF7UO3vCMd-23" style="edgeStyle=orthogonalEdgeStyle;rounded=0;orthogonalLoop=1;jettySize=auto;html=1;exitX=0.5;exitY=0;exitDx=0;exitDy=0;entryX=0.75;entryY=1;entryDx=0;entryDy=0;" edge="1" parent="1" source="TlQTSCo525QF7UO3vCMd-19" target="TlQTSCo525QF7UO3vCMd-21">
          <mxGeometry relative="1" as="geometry" />
        </mxCell>
        <mxCell id="TlQTSCo525QF7UO3vCMd-19" value="error" style="rounded=0;whiteSpace=wrap;html=1;" vertex="1" parent="1">
          <mxGeometry x="50" y="430" width="120" height="60" as="geometry" />
        </mxCell>
        <mxCell id="TlQTSCo525QF7UO3vCMd-24" style="edgeStyle=orthogonalEdgeStyle;rounded=0;orthogonalLoop=1;jettySize=auto;html=1;exitX=1;exitY=0.5;exitDx=0;exitDy=0;entryX=0;entryY=0.5;entryDx=0;entryDy=0;" edge="1" parent="1" source="TlQTSCo525QF7UO3vCMd-21" target="TlQTSCo525QF7UO3vCMd-6">
          <mxGeometry relative="1" as="geometry" />
        </mxCell>
        <mxCell id="TlQTSCo525QF7UO3vCMd-21" value="sorry dat snap ik niet" style="shape=parallelogram;perimeter=parallelogramPerimeter;whiteSpace=wrap;html=1;fixedSize=1;" vertex="1" parent="1">
          <mxGeometry x="20" y="310" width="130" height="70" as="geometry" />
        </mxCell>
        <mxCell id="TlQTSCo525QF7UO3vCMd-27" style="edgeStyle=orthogonalEdgeStyle;rounded=0;orthogonalLoop=1;jettySize=auto;html=1;exitX=0.5;exitY=1;exitDx=0;exitDy=0;entryX=0.5;entryY=0;entryDx=0;entryDy=0;" edge="1" parent="1" source="TlQTSCo525QF7UO3vCMd-25" target="TlQTSCo525QF7UO3vCMd-26">
          <mxGeometry relative="1" as="geometry" />
        </mxCell>
        <mxCell id="TlQTSCo525QF7UO3vCMd-25" value="if number tussen 1-3" style="rounded=0;whiteSpace=wrap;html=1;" vertex="1" parent="1">
          <mxGeometry x="294" y="690" width="120" height="60" as="geometry" />
        </mxCell>
        <mxCell id="TlQTSCo525QF7UO3vCMd-30" style="edgeStyle=orthogonalEdgeStyle;rounded=0;orthogonalLoop=1;jettySize=auto;html=1;exitX=0.5;exitY=1;exitDx=0;exitDy=0;entryX=0.5;entryY=0;entryDx=0;entryDy=0;" edge="1" parent="1" source="TlQTSCo525QF7UO3vCMd-26" target="TlQTSCo525QF7UO3vCMd-29">
          <mxGeometry relative="1" as="geometry" />
        </mxCell>
        <mxCell id="TlQTSCo525QF7UO3vCMd-32" style="edgeStyle=orthogonalEdgeStyle;rounded=0;orthogonalLoop=1;jettySize=auto;html=1;exitX=0.75;exitY=1;exitDx=0;exitDy=0;entryX=0;entryY=0.5;entryDx=0;entryDy=0;" edge="1" parent="1" source="TlQTSCo525QF7UO3vCMd-26" target="TlQTSCo525QF7UO3vCMd-31">
          <mxGeometry relative="1" as="geometry" />
        </mxCell>
        <mxCell id="TlQTSCo525QF7UO3vCMd-26" value="wilt u deze aantal bolletjes in een hoorntje of bakje" style="shape=parallelogram;perimeter=parallelogramPerimeter;whiteSpace=wrap;html=1;fixedSize=1;" vertex="1" parent="1">
          <mxGeometry x="291" y="810" width="126" height="80" as="geometry" />
        </mxCell>
        <mxCell id="TlQTSCo525QF7UO3vCMd-37" style="edgeStyle=orthogonalEdgeStyle;rounded=0;orthogonalLoop=1;jettySize=auto;html=1;exitX=0.5;exitY=1;exitDx=0;exitDy=0;entryX=0.5;entryY=0;entryDx=0;entryDy=0;" edge="1" parent="1" source="TlQTSCo525QF7UO3vCMd-29" target="TlQTSCo525QF7UO3vCMd-36">
          <mxGeometry relative="1" as="geometry" />
        </mxCell>
        <mxCell id="TlQTSCo525QF7UO3vCMd-29" value="&quot;keuze&quot;" style="rhombus;whiteSpace=wrap;html=1;" vertex="1" parent="1">
          <mxGeometry x="287" y="960" width="134" height="130" as="geometry" />
        </mxCell>
        <mxCell id="TlQTSCo525QF7UO3vCMd-34" style="edgeStyle=orthogonalEdgeStyle;rounded=0;orthogonalLoop=1;jettySize=auto;html=1;exitX=0.5;exitY=0;exitDx=0;exitDy=0;entryX=0.5;entryY=1;entryDx=0;entryDy=0;" edge="1" parent="1" source="TlQTSCo525QF7UO3vCMd-31" target="TlQTSCo525QF7UO3vCMd-33">
          <mxGeometry relative="1" as="geometry" />
        </mxCell>
        <mxCell id="TlQTSCo525QF7UO3vCMd-31" value="error" style="rounded=0;whiteSpace=wrap;html=1;" vertex="1" parent="1">
          <mxGeometry x="480" y="920" width="120" height="60" as="geometry" />
        </mxCell>
        <mxCell id="TlQTSCo525QF7UO3vCMd-35" style="edgeStyle=orthogonalEdgeStyle;rounded=0;orthogonalLoop=1;jettySize=auto;html=1;exitX=0;exitY=0.5;exitDx=0;exitDy=0;" edge="1" parent="1" source="TlQTSCo525QF7UO3vCMd-33" target="TlQTSCo525QF7UO3vCMd-26">
          <mxGeometry relative="1" as="geometry" />
        </mxCell>
        <mxCell id="TlQTSCo525QF7UO3vCMd-33" value="sorry dit snap ik niet" style="shape=parallelogram;perimeter=parallelogramPerimeter;whiteSpace=wrap;html=1;fixedSize=1;" vertex="1" parent="1">
          <mxGeometry x="480" y="840" width="120" height="60" as="geometry" />
        </mxCell>
        <mxCell id="TlQTSCo525QF7UO3vCMd-39" style="edgeStyle=orthogonalEdgeStyle;rounded=0;orthogonalLoop=1;jettySize=auto;html=1;exitX=0.5;exitY=1;exitDx=0;exitDy=0;entryX=0.5;entryY=0;entryDx=0;entryDy=0;" edge="1" parent="1" source="TlQTSCo525QF7UO3vCMd-36" target="TlQTSCo525QF7UO3vCMd-38">
          <mxGeometry relative="1" as="geometry" />
        </mxCell>
        <mxCell id="TlQTSCo525QF7UO3vCMd-36" value="hier is u hoorntje/bakje met &#39;aantal&#39; bolletjes&lt;br&gt;&lt;span style=&quot;padding: 0px; margin: 0px; color: transparent; position: absolute; cursor: text; transform-origin: 0% 0%; text-align: start; background-color: rgb(255, 255, 255); left: 534.307px; top: 1054.75px; font-size: 20px; font-family: sans-serif; transform: scaleX(0.984802);&quot; dir=&quot;ltr&quot;&gt;{hoorn&lt;/span&gt;&lt;span style=&quot;padding: 0px; margin: 0px; color: transparent; position: absolute; cursor: text; transform-origin: 0% 0%; text-align: start; background-color: rgb(255, 255, 255); left: 591.074px; top: 1054.75px; font-size: 20px; font-family: sans-serif; transform: scaleX(1.02202);&quot; dir=&quot;ltr&quot;&gt;tje/bakje}&lt;/span&gt;&lt;span style=&quot;padding: 0px; margin: 0px; color: transparent; position: absolute; cursor: text; transform-origin: 0% 0%; text-align: start; background-color: rgb(255, 255, 255); left: 678.555px; top: 1054.75px; font-size: 20px; font-family: sans-serif; transform: scaleX(0.993849);&quot; dir=&quot;ltr&quot;&gt;met&lt;/span&gt;&lt;span style=&quot;padding: 0px; margin: 0px; color: transparent; position: absolute; cursor: text; transform-origin: 0% 0%; text-align: start; background-color: rgb(255, 255, 255); left: 716.211px; top: 1054.75px; font-size: 20px; font-family: sans-serif; transform: scaleX(0.966321);&quot; dir=&quot;ltr&quot;&gt;{aantal}&lt;/span&gt;&lt;span style=&quot;padding: 0px; margin: 0px; color: transparent; position: absolute; cursor: text; transform-origin: 0% 0%; text-align: start; background-color: rgb(255, 255, 255); left: 120px; top: 1082.83px; font-size: 20px; font-family: sans-serif; transform: scaleX(0.9792);&quot; dir=&quot;ltr&quot;&gt;bolletje(s)&lt;/span&gt;" style="shape=parallelogram;perimeter=parallelogramPerimeter;whiteSpace=wrap;html=1;fixedSize=1;" vertex="1" parent="1">
          <mxGeometry x="294" y="1140" width="120" height="60" as="geometry" />
        </mxCell>
        <mxCell id="TlQTSCo525QF7UO3vCMd-41" style="edgeStyle=orthogonalEdgeStyle;rounded=0;orthogonalLoop=1;jettySize=auto;html=1;exitX=0;exitY=1;exitDx=0;exitDy=0;" edge="1" parent="1" source="TlQTSCo525QF7UO3vCMd-38" target="TlQTSCo525QF7UO3vCMd-40">
          <mxGeometry relative="1" as="geometry" />
        </mxCell>
        <mxCell id="TlQTSCo525QF7UO3vCMd-44" style="edgeStyle=orthogonalEdgeStyle;rounded=0;orthogonalLoop=1;jettySize=auto;html=1;exitX=1;exitY=1;exitDx=0;exitDy=0;entryX=0.5;entryY=0;entryDx=0;entryDy=0;" edge="1" parent="1" source="TlQTSCo525QF7UO3vCMd-38" target="TlQTSCo525QF7UO3vCMd-43">
          <mxGeometry relative="1" as="geometry" />
        </mxCell>
        <mxCell id="TlQTSCo525QF7UO3vCMd-48" style="edgeStyle=orthogonalEdgeStyle;rounded=0;orthogonalLoop=1;jettySize=auto;html=1;exitX=0.5;exitY=1;exitDx=0;exitDy=0;entryX=0.5;entryY=0;entryDx=0;entryDy=0;" edge="1" parent="1" source="TlQTSCo525QF7UO3vCMd-38" target="TlQTSCo525QF7UO3vCMd-47">
          <mxGeometry relative="1" as="geometry" />
        </mxCell>
        <mxCell id="TlQTSCo525QF7UO3vCMd-38" value="wilt u nog meer bestellen" style="shape=parallelogram;perimeter=parallelogramPerimeter;whiteSpace=wrap;html=1;fixedSize=1;" vertex="1" parent="1">
          <mxGeometry x="287" y="1260" width="120" height="60" as="geometry" />
        </mxCell>
        <mxCell id="TlQTSCo525QF7UO3vCMd-42" style="edgeStyle=orthogonalEdgeStyle;rounded=0;orthogonalLoop=1;jettySize=auto;html=1;exitX=0;exitY=0.5;exitDx=0;exitDy=0;entryX=0;entryY=0.5;entryDx=0;entryDy=0;" edge="1" parent="1" source="TlQTSCo525QF7UO3vCMd-40" target="TlQTSCo525QF7UO3vCMd-4">
          <mxGeometry relative="1" as="geometry">
            <Array as="points">
              <mxPoint x="-80" y="1390" />
              <mxPoint x="-80" y="240" />
            </Array>
          </mxGeometry>
        </mxCell>
        <mxCell id="TlQTSCo525QF7UO3vCMd-40" value="ja" style="rhombus;whiteSpace=wrap;html=1;" vertex="1" parent="1">
          <mxGeometry x="150" y="1350" width="80" height="80" as="geometry" />
        </mxCell>
        <mxCell id="TlQTSCo525QF7UO3vCMd-46" style="edgeStyle=orthogonalEdgeStyle;rounded=0;orthogonalLoop=1;jettySize=auto;html=1;exitX=0.5;exitY=1;exitDx=0;exitDy=0;" edge="1" parent="1" source="TlQTSCo525QF7UO3vCMd-43" target="TlQTSCo525QF7UO3vCMd-45">
          <mxGeometry relative="1" as="geometry" />
        </mxCell>
        <mxCell id="TlQTSCo525QF7UO3vCMd-43" value="nee" style="rhombus;whiteSpace=wrap;html=1;" vertex="1" parent="1">
          <mxGeometry x="450" y="1350" width="80" height="80" as="geometry" />
        </mxCell>
        <mxCell id="TlQTSCo525QF7UO3vCMd-45" value="bedankt en tot ziens" style="shape=parallelogram;perimeter=parallelogramPerimeter;whiteSpace=wrap;html=1;fixedSize=1;" vertex="1" parent="1">
          <mxGeometry x="440" y="1510" width="120" height="60" as="geometry" />
        </mxCell>
        <mxCell id="TlQTSCo525QF7UO3vCMd-47" value="error" style="rounded=1;whiteSpace=wrap;html=1;" vertex="1" parent="1">
          <mxGeometry x="280" y="1450" width="120" height="60" as="geometry" />
        </mxCell>
        <mxCell id="TlQTSCo525QF7UO3vCMd-51" style="edgeStyle=orthogonalEdgeStyle;rounded=0;orthogonalLoop=1;jettySize=auto;html=1;exitX=0;exitY=0.5;exitDx=0;exitDy=0;entryX=0.25;entryY=1;entryDx=0;entryDy=0;" edge="1" parent="1" source="TlQTSCo525QF7UO3vCMd-49" target="TlQTSCo525QF7UO3vCMd-38">
          <mxGeometry relative="1" as="geometry">
            <Array as="points">
              <mxPoint x="250" y="1590" />
              <mxPoint x="250" y="1420" />
              <mxPoint x="317" y="1420" />
            </Array>
          </mxGeometry>
        </mxCell>
        <mxCell id="TlQTSCo525QF7UO3vCMd-49" value="dit snap ik niet" style="shape=parallelogram;perimeter=parallelogramPerimeter;whiteSpace=wrap;html=1;fixedSize=1;" vertex="1" parent="1">
          <mxGeometry x="280" y="1560" width="120" height="60" as="geometry" />
        </mxCell>
        <mxCell id="TlQTSCo525QF7UO3vCMd-50" style="edgeStyle=orthogonalEdgeStyle;rounded=0;orthogonalLoop=1;jettySize=auto;html=1;exitX=0.5;exitY=1;exitDx=0;exitDy=0;entryX=0.58;entryY=0.05;entryDx=0;entryDy=0;entryPerimeter=0;" edge="1" parent="1" source="TlQTSCo525QF7UO3vCMd-47" target="TlQTSCo525QF7UO3vCMd-49">
          <mxGeometry relative="1" as="geometry" />
        </mxCell>
      </root>
    </mxGraphModel>
  </diagram>
</mxfile>
